# xmcd
#
# Track frame offsets:
#	150
#	9259
#	28707
#	36688
#	48940
#	55410
#	65826
#	80113
#	87856
#	100684
#	110504
#	128127
#	142578
#	149423
#	160465
#	177812
#	185908
#	197120
#	202572
#	216214
#	227198
#	235253
#	245153
#	254323
#	262839
#
# Disc length: 3594 seconds
#
# Revision: 0
# Processed by: cddbd v1.5.1PL0 Copyright (c) Steve Scherf et al.
# Submitted via: audiograbber 1.83.01
#
DISCID=6a0e0819
DTITLE=Buster B. Jones - A Decade Of
DYEAR=2002
DGENRE=
TTITLE0=Black Porch Boogie
TTITLE1=Georgia On My Mind
TTITLE2=Salty Dog Rag
TTITLE3=Rattenbury Rag
TTITLE4=Steppin' Out
TTITLE5=Black Mountain Rag
TTITLE6=Flight Of The Hummingbird
TTITLE7=Limehouse Blues
TTITLE8=Linus And Lucy
TTITLE9=Mostly Merle
TTITLE10=Mozart 101
TTITLE11=Wizard Of Oz Medley
TTITLE12=Knights Of The Round Table
TTITLE13=Ask John
TTITLE14=Fingers In Flight
TTITLE15=Just Another Rag
TTITLE16=Merci Marcel
TTITLE17=Sir Thomas Leddy
TTITLE18=Shadows In Dark
TTITLE19=Just Us
TTITLE20=Chao Pier Paolo
TTITLE21=Charming
TTITLE22=The Claw
TTITLE23=Days Gone By
TTITLE24=Alabama Jubilee
EXTD=
EXTT0=
EXTT1=
EXTT2=
EXTT3=
EXTT4=
EXTT5=
EXTT6=
EXTT7=
EXTT8=
EXTT9=
EXTT10=
EXTT11=
EXTT12=
EXTT13=
EXTT14=
EXTT15=
EXTT16=
EXTT17=
EXTT18=
EXTT19=
EXTT20=
EXTT21=
EXTT22=
EXTT23=
EXTT24=
PLAYORDER=
